HIERARCHY
ROOT hips
{
	OFFSET 0.000000 104.274902 0.000000
	CHANNELS 6 Xposition Yposition Zposition Xrotation Yrotation Zrotation
	JOINT spine
	{
		OFFSET 0.000000 10.181549 0.131524
		CHANNELS 6 Xposition Yposition Zposition Xrotation Yrotation Zrotation
		JOINT chest
		{
			OFFSET 0.000000 9.893990 -1.470706
			CHANNELS 3 Xrotation Yrotation Zrotation
			JOINT upperChest
			{
				OFFSET 0.000000 9.220787 -1.370637
				CHANNELS 3 Xrotation Yrotation Zrotation
				JOINT neck
				{
					OFFSET 0.000000 16.740372 -2.049022
					CHANNELS 6 Xposition Yposition Zposition Xrotation Yrotation Zrotation
					JOINT head
					{
						OFFSET 0.000000 9.617859 1.684976
						CHANNELS 6 Xposition Yposition Zposition Xrotation Yrotation Zrotation
						JOINT headEnd
						{
							OFFSET 0.000000 22.037384 7.501072
							CHANNELS 6 Xposition Yposition Zposition Xrotation Yrotation Zrotation
							End Site
							{
								OFFSET 0.000000 23.106567 -2.828246
							}
						}
					}
				}
				JOINT rightShoulder
				{
					OFFSET -4.570000 11.014877 -2.160840
					CHANNELS 6 Xposition Yposition Zposition Xrotation Yrotation Zrotation
					JOINT rightUpperArm
					{
						OFFSET -10.592867 -0.524796 -2.232105
						CHANNELS 3 Xrotation Yrotation Zrotation
						JOINT rightLowerArm
						{
							OFFSET -27.841497 0.000000 -0.000002
							CHANNELS 3 Xrotation Yrotation Zrotation
							JOINT rightHand
							{
								OFFSET -28.328812 0.000000 -0.000001
								CHANNELS 3 Xrotation Yrotation Zrotation
								JOINT rightThumbProximal
								{
									OFFSET -2.464798 -1.573990 2.681911
									CHANNELS 6 Xposition Yposition Zposition Xrotation Yrotation Zrotation
									JOINT rightThumbIntermediate
									{
										OFFSET -3.244781 -1.873383 1.873376
										CHANNELS 3 Xrotation Yrotation Zrotation
										JOINT rightThumbDistal
										{
											OFFSET -2.646263 -1.527817 1.527818
											CHANNELS 6 Xposition Yposition Zposition Xrotation Yrotation Zrotation
											JOINT rightHandThumb4
											{
												OFFSET -1.994591 -1.151581 1.151575
												CHANNELS 6 Xposition Yposition Zposition Xrotation Yrotation Zrotation
												End Site
												{
													OFFSET -1.860176 -1.142715 1.365483
												}
											}
										}
									}
								}
								JOINT rightIndexProximal
								{
									OFFSET -9.108299 -0.517883 2.259803
									CHANNELS 6 Xposition Yposition Zposition Xrotation Yrotation Zrotation
									JOINT rightIndexIntermediate
									{
										OFFSET -3.699997 0.000000 0.000000
										CHANNELS 3 Xrotation Yrotation Zrotation
										JOINT rightIndexDistal
										{
											OFFSET -2.850006 0.000000 0.000000
											CHANNELS 3 Xrotation Yrotation Zrotation
											JOINT rightHandIndex4
											{
												OFFSET -2.772194 0.000000 0.000000
												CHANNELS 3 Xrotation Yrotation Zrotation
												End Site
												{
													OFFSET -2.772202 0.000000 -0.000484
												}
											}
										}
									}
								}
								JOINT rightMiddleProximal
								{
									OFFSET -9.532501 0.000000 -0.000000
									CHANNELS 6 Xposition Yposition Zposition Xrotation Yrotation Zrotation
									JOINT rightMiddleIntermediate
									{
										OFFSET -3.699997 0.000000 0.000000
										CHANNELS 3 Xrotation Yrotation Zrotation
										JOINT rightMiddleDistal
										{
											OFFSET -2.949997 0.000000 0.000000
											CHANNELS 3 Xrotation Yrotation Zrotation
											JOINT rightHandMiddle4
											{
												OFFSET -2.946594 0.000000 0.000000
												CHANNELS 3 Xrotation Yrotation Zrotation
												End Site
												{
													OFFSET -2.946602 0.000000 -0.000982
												}
											}
										}
									}
								}
								JOINT rightRingProximal
								{
									OFFSET -9.103600 -0.043106 -1.865100
									CHANNELS 6 Xposition Yposition Zposition Xrotation Yrotation Zrotation
									JOINT rightRingIntermediate
									{
										OFFSET -3.379303 0.000000 0.000000
										CHANNELS 3 Xrotation Yrotation Zrotation
										JOINT rightRingDistal
										{
											OFFSET -2.889694 0.000000 0.000000
											CHANNELS 3 Xrotation Yrotation Zrotation
											JOINT rightHandRing4
											{
												OFFSET -2.638802 0.000000 0.000000
												CHANNELS 3 Xrotation Yrotation Zrotation
												End Site
												{
													OFFSET -2.638802 0.000000 0.004218
												}
											}
										}
									}
								}
								JOINT rightLittleProximal
								{
									OFFSET -8.076698 -0.486725 -3.806299
									CHANNELS 6 Xposition Yposition Zposition Xrotation Yrotation Zrotation
									JOINT rightLittleIntermediate
									{
										OFFSET -3.600006 0.000000 0.000000
										CHANNELS 3 Xrotation Yrotation Zrotation
										JOINT rightLittleDistal
										{
											OFFSET -2.099998 0.000000 0.000000
											CHANNELS 3 Xrotation Yrotation Zrotation
											JOINT rightHandPinky4
											{
												OFFSET -2.115791 0.000000 0.000000
												CHANNELS 3 Xrotation Yrotation Zrotation
												End Site
												{
													OFFSET -2.115799 0.000000 0.000174
												}
											}
										}
									}
								}
							}
						}
					}
				}
				JOINT leftShoulder
				{
					OFFSET 4.570400 11.014679 -2.160816
					CHANNELS 6 Xposition Yposition Zposition Xrotation Yrotation Zrotation
					JOINT leftUpperArm
					{
						OFFSET 10.592373 -0.524597 -2.232116
						CHANNELS 3 Xrotation Yrotation Zrotation
						JOINT leftLowerArm
						{
							OFFSET 27.841488 0.000000 0.000001
							CHANNELS 3 Xrotation Yrotation Zrotation
							JOINT leftHand
							{
								OFFSET 28.328808 0.000000 -0.000000
								CHANNELS 3 Xrotation Yrotation Zrotation
								JOINT leftThumbProximal
								{
									OFFSET 2.466103 -1.576202 2.681698
									CHANNELS 6 Xposition Yposition Zposition Xrotation Yrotation Zrotation
									JOINT leftThumbIntermediate
									{
										OFFSET 3.243317 -1.872528 1.872530
										CHANNELS 3 Xrotation Yrotation Zrotation
										JOINT leftThumbDistal
										{
											OFFSET 2.647881 -1.528763 1.528754
											CHANNELS 6 Xposition Yposition Zposition Xrotation Yrotation Zrotation
											JOINT leftHandThumb4
											{
												OFFSET 1.998924 -1.154083 1.154080
												CHANNELS 6 Xposition Yposition Zposition Xrotation Yrotation Zrotation
												End Site
												{
													OFFSET 1.884041 -1.149155 1.337651
												}
											}
										}
									}
								}
								JOINT leftIndexProximal
								{
									OFFSET 9.109299 -0.518005 2.259900
									CHANNELS 6 Xposition Yposition Zposition Xrotation Yrotation Zrotation
									JOINT leftIndexIntermediate
									{
										OFFSET 3.699997 0.000000 0.000000
										CHANNELS 3 Xrotation Yrotation Zrotation
										JOINT leftIndexDistal
										{
											OFFSET 2.850006 0.000000 0.000000
											CHANNELS 3 Xrotation Yrotation Zrotation
											JOINT leftHandIndex4
											{
												OFFSET 2.774895 0.000000 0.000000
												CHANNELS 3 Xrotation Yrotation Zrotation
												End Site
												{
													OFFSET 2.774902 0.000000 -0.000072
												}
											}
										}
									}
								}
								JOINT leftMiddleProximal
								{
									OFFSET 9.533401 0.000000 0.000000
									CHANNELS 6 Xposition Yposition Zposition Xrotation Yrotation Zrotation
									JOINT leftMiddleIntermediate
									{
										OFFSET 3.699997 0.000000 0.000000
										CHANNELS 3 Xrotation Yrotation Zrotation
										JOINT leftMiddleDistal
										{
											OFFSET 2.949997 0.000000 0.000000
											CHANNELS 3 Xrotation Yrotation Zrotation
											JOINT leftHandMiddle4
											{
												OFFSET 2.952896 0.000000 0.000000
												CHANNELS 3 Xrotation Yrotation Zrotation
												End Site
												{
													OFFSET 2.952904 0.000000 0.000165
												}
											}
										}
									}
								}
								JOINT leftRingProximal
								{
									OFFSET 9.104500 -0.042999 -1.865101
									CHANNELS 6 Xposition Yposition Zposition Xrotation Yrotation Zrotation
									JOINT leftRingIntermediate
									{
										OFFSET 3.149994 0.000000 0.000000
										CHANNELS 3 Xrotation Yrotation Zrotation
										JOINT leftRingDistal
										{
											OFFSET 2.950005 0.000000 0.000000
											CHANNELS 3 Xrotation Yrotation Zrotation
											JOINT leftHandRing4
											{
												OFFSET 2.644302 0.000000 0.000000
												CHANNELS 3 Xrotation Yrotation Zrotation
												End Site
												{
													OFFSET 2.644302 0.000000 0.000083
												}
											}
										}
									}
								}
								JOINT leftLittleProximal
								{
									OFFSET 8.077805 -0.486893 -3.806302
									CHANNELS 6 Xposition Yposition Zposition Xrotation Yrotation Zrotation
									JOINT leftLittleIntermediate
									{
										OFFSET 3.600006 0.000000 0.000000
										CHANNELS 3 Xrotation Yrotation Zrotation
										JOINT leftLittleDistal
										{
											OFFSET 2.099998 0.000000 0.000000
											CHANNELS 3 Xrotation Yrotation Zrotation
											JOINT leftHandPinky4
											{
												OFFSET 2.125496 0.000000 0.000000
												CHANNELS 3 Xrotation Yrotation Zrotation
												End Site
												{
													OFFSET 2.125504 0.000000 -0.001254
												}
											}
										}
									}
								}
							}
						}
					}
				}
			}
		}
	}
	JOINT rightUpperLeg
	{
		OFFSET -8.207800 -6.751701 -1.599544
		CHANNELS 6 Xposition Yposition Zposition Xrotation Yrotation Zrotation
		JOINT rightLowerLeg
		{
			OFFSET 0.000004 -44.370152 0.345934
			CHANNELS 3 Xrotation Yrotation Zrotation
			JOINT rightFoot
			{
				OFFSET 0.000004 -44.423664 -3.043535
				CHANNELS 3 Xrotation Yrotation Zrotation
				JOINT rightToes
				{
					OFFSET 0.000001 -8.728691 10.710592
					CHANNELS 3 Xrotation Yrotation Zrotation
					JOINT rightToesEnd
					{
						OFFSET 0.000000 -0.000665 9.278101
						CHANNELS 3 Xrotation Yrotation Zrotation
						End Site
						{
							OFFSET 0.000000 -0.000665 9.278103
						}
					}
				}
			}
		}
	}
	JOINT leftUpperLeg
	{
		OFFSET 8.207800 -6.751701 -1.599544
		CHANNELS 6 Xposition Yposition Zposition Xrotation Yrotation Zrotation
		JOINT leftLowerLeg
		{
			OFFSET 0.000004 -44.370037 0.346940
			CHANNELS 3 Xrotation Yrotation Zrotation
			JOINT leftFoot
			{
				OFFSET 0.000004 -44.423611 -3.044388
				CHANNELS 3 Xrotation Yrotation Zrotation
				JOINT leftToes
				{
					OFFSET 0.000001 -8.728690 10.710592
					CHANNELS 3 Xrotation Yrotation Zrotation
					JOINT leftToesEnd
					{
						OFFSET 0.000000 -0.000680 9.278101
						CHANNELS 3 Xrotation Yrotation Zrotation
						End Site
						{
							OFFSET 0.000000 -0.000680 9.278101
						}
					}
				}
			}
		}
	}
}
MOTION
Frames: 4
Frame Time: 0.033333
-0.004946 107.928825 -0.000305 -3.823096 3.899906 -2.564225 0.000001 10.181538 0.131522 5.988376 0.218152 2.713317 -3.550150 0.580245 0.347332 -3.529450 0.738172 0.342270 0.000000 16.740376 -2.049023 2.005138 -0.180999 1.451373 -0.000000 9.617850 1.684977 2.162795 0.933316 -0.592863 0.000001 22.037369 7.501072 -0.000000 -0.000000 -0.000000 -4.569998 11.014869 -2.160843 3.348635 -0.132658 4.447660 4.392229 -6.179644 76.336708 -0.466126 16.017034 0.264065 -0.420682 -6.591216 -2.088065 -2.464785 -1.574013 2.681914 15.830475 -2.790509 -17.226878 -2.089963 -31.112427 7.334393 -2.646268 -1.527800 1.527813 -6.636829 -3.826600 2.613590 -1.994583 -1.151569 1.151574 0.000002 -0.000005 -0.000000 -9.108292 -0.517858 2.259804 2.363704 -3.629165 8.319471 -2.150503 -2.450127 18.519494 -1.884652 -4.851316 14.302701 0.000000 -0.000000 0.000005 -9.532495 0.000018 -0.000000 -1.975728 -5.694976 13.540690 0.269438 -5.105353 26.891968 -0.672028 -1.133973 11.614319 0.000000 -0.000000 0.000005 -9.103594 -0.043112 -1.865103 -4.985720 -10.121207 10.687678 4.004212 -4.050423 33.181127 2.114842 -3.149080 15.516732 0.000000 -0.000000 0.000004 -8.076686 -0.486723 -3.806298 -6.462146 -11.354779 23.220714 10.740638 -2.555540 34.780057 6.435550 -3.077390 15.236789 -0.000000 0.000001 0.000002 4.570400 11.014679 -2.160818 3.208251 -7.400546 -2.403634 -2.380928 17.483242 -78.263176 0.076715 -11.893678 -2.055639 -1.144302 2.627512 1.086697 2.466080 -1.576222 2.681697 10.747909 -0.300246 15.888355 -0.894041 26.402527 -5.939982 2.647879 -1.528740 1.528754 -4.784901 4.319769 -1.680613 1.998925 -1.154090 1.154072 -0.000003 -0.000003 -0.000000 9.109294 -0.518000 2.259898 1.217231 0.645964 -5.022096 -1.804804 1.927088 -16.721570 -1.632392 3.853748 -12.990805 0.000000 0.000001 -0.000000 9.533399 0.000002 -0.000001 -1.933110 4.452833 -9.346294 -0.039970 4.088416 -23.700980 -0.547088 0.903556 -11.495958 -0.000001 0.000002 -0.000001 9.104502 -0.042999 -1.865102 -3.661795 10.854158 -6.839664 3.000920 3.465015 -29.220813 1.695056 2.546505 -15.351465 -0.000000 0.000001 -0.000000 8.077801 -0.486913 -3.806309 -4.043454 12.926458 -17.157842 8.438833 2.595272 -31.032223 5.107858 2.561054 -14.267691 -0.000000 -0.000000 0.000004 -8.207798 -6.751714 -1.599546 0.551480 -2.737677 6.107129 5.541434 7.687234 0.611868 30.558953 -3.937841 -2.671720 -32.351696 0.014142 0.057472 0.000000 0.000000 0.000000 8.207799 -6.751705 -1.599545 -5.488506 8.636564 10.542787 10.678363 -6.330677 -0.530248 30.910171 5.760541 -10.221751 -32.435284 -0.003031 -0.005746 -0.000000 0.000000 0.000000 
-0.020308 107.928131 0.092678 -3.877781 3.928388 -2.505862 -0.000000 10.181564 0.131524 5.926788 0.209366 2.624772 -3.524528 0.581316 0.357407 -3.504655 0.739322 0.353210 0.000000 16.740353 -2.049025 2.189274 -0.184765 1.472689 -0.000000 9.617867 1.684974 2.103907 0.945477 -0.592325 0.000000 22.037354 7.501075 -0.000000 -0.000000 -0.000000 -4.569997 11.014881 -2.160843 3.341418 -0.072559 4.472754 4.413604 -6.134724 76.311088 -0.367676 16.072021 0.239996 -0.415581 -6.609463 -2.106620 -2.464804 -1.574005 2.681905 15.829102 -2.786601 -17.227151 -2.122111 -31.062970 7.329635 -2.646273 -1.527811 1.527810 -6.661595 -3.770277 2.627701 -1.994601 -1.151585 1.151575 0.000001 0.000000 0.000001 -9.108304 -0.517867 2.259803 2.363713 -3.629042 8.313089 -2.150515 -2.449132 18.469907 -1.886330 -4.850788 14.252834 -0.000000 -0.000001 0.000001 -9.532507 0.000002 -0.000001 -1.975792 -5.694783 13.529088 0.267881 -5.105066 26.839775 -0.671968 -1.133026 11.562392 0.000000 -0.000000 0.000003 -9.103600 -0.043111 -1.865099 -4.985686 -10.121097 10.682492 4.004341 -4.049234 33.132377 2.114607 -3.148204 15.468172 0.000001 0.000000 0.000004 -8.076704 -0.486726 -3.806301 -6.462550 -11.354601 23.205908 10.739773 -2.554646 34.724777 6.434562 -3.076407 15.181677 0.000000 0.000002 -0.000002 4.570400 11.014703 -2.160817 3.234075 -7.205313 -2.377111 -2.325565 17.335712 -78.284855 0.157945 -11.860467 -2.049392 -1.152281 2.598939 1.054183 2.466103 -1.576206 2.681695 10.747549 -0.306474 15.910627 -0.903606 26.402322 -5.943957 2.647877 -1.528744 1.528750 -4.784910 4.319795 -1.680609 1.998917 -1.154071 1.154078 0.000001 -0.000001 -0.000000 9.109306 -0.518007 2.259895 1.217786 0.651685 -5.034333 -1.804834 1.927222 -16.728148 -1.632183 3.853807 -12.996525 0.000001 0.000001 -0.000000 9.533407 -0.000007 -0.000004 -1.932991 4.453226 -9.368976 -0.039382 4.088559 -23.721249 -0.547129 0.903803 -11.508626 -0.000001 0.000001 -0.000005 9.104523 -0.043013 -1.865108 -3.661956 10.854643 -6.862699 3.000820 3.465564 -29.243858 1.695084 2.546757 -15.365407 -0.000000 -0.000001 0.000000 8.077809 -0.486899 -3.806309 -4.047154 12.923018 -17.179521 8.439047 2.595550 -31.047974 5.108034 2.561216 -14.276769 -0.000000 0.000001 0.000000 -8.207799 -6.751698 -1.599544 0.620598 -2.728627 6.076581 5.631151 7.642595 0.593675 30.475153 -3.933205 -2.664124 -32.388276 0.017467 0.033705 -0.000000 0.000000 0.000000 8.207798 -6.751689 -1.599543 -5.325825 8.577895 10.493147 10.616703 -6.295591 -0.540228 30.897033 5.768775 -10.257739 -32.451496 -0.019032 -0.001324 -0.000000 -0.000000 0.000000 
-0.014823 107.926155 0.248304 -3.922935 3.942398 -2.442922 0.000000 10.181528 0.131524 5.852146 0.198704 2.517689 -3.486693 0.576527 0.363123 -3.467666 0.730437 0.360006 0.000000 16.740368 -2.049017 2.320172 -0.194757 1.529935 0.000000 9.617842 1.684977 2.061324 0.978834 -0.598991 -0.000001 22.037384 7.501072 -0.000001 0.000000 -0.000000 -4.570001 11.014894 -2.160835 3.319883 0.002262 4.505259 4.415635 -6.001210 76.268269 -0.298683 16.084319 0.226341 -0.414197 -6.518880 -2.123416 -2.464801 -1.573994 2.681906 15.824606 -2.773867 -17.227998 -2.220063 -30.921574 7.316937 -2.646279 -1.527814 1.527823 -6.740481 -3.608204 2.664275 -1.994601 -1.151583 1.151579 -0.000000 0.000000 0.000001 -9.108305 -0.517861 2.259802 2.363273 -3.623854 8.289431 -2.150609 -2.446254 18.325625 -1.898303 -4.848300 14.107600 0.000000 -0.000000 -0.000001 -9.532500 -0.000001 -0.000001 -1.975971 -5.694247 13.497301 0.263325 -5.104212 26.688273 -0.671773 -1.130271 11.411306 -0.000000 -0.000000 0.000002 -9.103596 -0.043094 -1.865104 -4.985595 -10.120698 10.663337 4.004695 -4.045816 32.990999 2.113913 -3.145648 15.327071 -0.000001 -0.000001 0.000004 -8.076672 -0.486732 -3.806301 -6.463704 -11.354117 23.165169 10.737383 -2.553548 34.565511 6.431642 -3.075098 15.022410 -0.000000 0.000000 0.000001 4.570401 11.014701 -2.160809 3.224809 -7.120368 -2.374430 -2.263969 17.219708 -78.308474 0.319326 -11.853839 -2.043810 -1.146604 2.609961 1.084175 2.466096 -1.576207 2.681696 10.745888 -0.323332 15.971330 -0.931941 26.399339 -5.954752 2.647896 -1.528748 1.528746 -4.796997 4.316500 -1.686866 1.998909 -1.154091 1.154072 0.000003 0.000003 0.000003 9.109295 -0.518024 2.259901 1.219789 0.672551 -5.067981 -1.804815 1.927709 -16.752448 -1.631482 3.854036 -13.017751 -0.000001 -0.000002 0.000001 9.533396 0.000014 0.000000 -1.932729 4.454289 -9.431296 -0.037757 4.088962 -23.776653 -0.547164 0.904433 -11.543484 -0.000001 0.000001 -0.000004 9.104498 -0.043005 -1.865096 -3.666633 10.851572 -6.926033 3.000569 3.467097 -29.307071 1.695265 2.547435 -15.403690 -0.000000 -0.000001 0.000002 8.077798 -0.486894 -3.806302 -4.061435 12.910030 -17.238810 8.450423 2.595919 -31.091154 5.108467 2.561668 -14.301474 -0.000000 -0.000000 0.000000 -8.207798 -6.751727 -1.599544 0.682962 -2.675233 6.032229 5.784261 7.594591 0.552188 30.337815 -3.909839 -2.642223 -32.437221 0.018498 0.013148 0.000000 0.000000 0.000000 8.207799 -6.751707 -1.599544 -5.126660 8.377633 10.414966 10.601258 -6.164974 -0.551961 30.846453 5.801143 -10.313042 -32.494041 -0.045679 0.000320 -0.000000 -0.000000 0.000000 
0.005782 107.922302 0.464085 -3.979909 3.939794 -2.406193 -0.000000 10.181556 0.131526 5.763375 0.188240 2.411912 -3.419194 0.564676 0.374884 -3.400983 0.717697 0.373501 -0.000000 16.740353 -2.049022 2.424236 -0.199993 1.614450 0.000001 9.617822 1.684973 1.962204 1.029128 -0.620000 0.000000 22.037369 7.501077 -0.000000 0.000000 -0.000000 -4.570001 11.014836 -2.160843 3.288659 0.039125 4.508608 4.380147 -5.760618 76.229795 -0.131984 16.099497 0.209162 -0.411533 -6.401594 -2.137866 -2.464792 -1.573995 2.681907 15.817101 -2.752406 -17.229458 -2.377299 -30.694146 7.297158 -2.646276 -1.527798 1.527814 -6.868234 -3.347591 2.723149 -1.994605 -1.151583 1.151578 -0.000000 -0.000001 -0.000000 -9.108301 -0.517875 2.259804 2.362056 -3.610832 8.253929 -2.158563 -2.442005 18.093219 -1.903684 -4.846123 13.874924 0.000000 0.000000 0.000002 -9.532503 0.000013 -0.000001 -1.976235 -5.693454 13.449706 0.256034 -5.102824 26.444841 -0.671404 -1.125845 11.168229 -0.000000 -0.000000 -0.000001 -9.103600 -0.043097 -1.865102 -4.985413 -10.120091 10.634577 4.005329 -4.043415 32.763997 2.113047 -3.144861 15.100111 -0.000000 -0.000000 -0.000002 -8.076694 -0.486739 -3.806299 -6.465411 -11.353363 23.103031 10.733606 -2.553305 34.309553 6.426834 -3.075029 14.766473 0.000000 0.000001 0.000001 4.570400 11.014662 -2.160817 3.206872 -7.036621 -2.371639 -2.214636 17.052103 -78.353301 0.521633 -11.812384 -2.041891 -1.136290 2.536777 1.133669 2.466086 -1.576216 2.681695 10.743414 -0.348566 16.062038 -0.975483 26.395269 -5.968920 2.647888 -1.528735 1.528748 -4.815081 4.311652 -1.696201 1.998917 -1.154091 1.154070 -0.000001 -0.000003 -0.000000 9.109285 -0.518006 2.259896 1.222757 0.703699 -5.118214 -1.804783 1.928426 -16.788719 -1.630444 3.854414 -13.049514 0.000002 0.000001 0.000001 9.533400 0.000007 0.000000 -1.932352 4.455878 -9.524350 -0.035250 4.089557 -23.859464 -0.547270 0.905364 -11.595585 0.000000 0.000001 -0.000002 9.104482 -0.043004 -1.865100 -3.678297 10.842144 -7.020185 3.009467 3.469288 -29.401837 1.695584 2.548474 -15.460835 -0.000001 0.000000 0.000001 8.077791 -0.486888 -3.806306 -4.082828 12.890704 -17.327401 8.473017 2.596289 -31.156260 5.115755 2.562577 -14.338741 -0.000000 -0.000000 -0.000003 -8.207800 -6.751710 -1.599543 0.754931 -2.496120 6.031572 5.998678 7.457266 0.466497 30.141840 -3.863601 -2.601119 -32.456407 0.015679 -0.006633 -0.000000 0.000000 0.000000 8.207801 -6.751697 -1.599544 -4.905792 8.056347 10.330294 10.687616 -5.915143 -0.528772 30.737726 5.845515 -10.403798 -32.563671 -0.100904 0.002922 -0.000000 -0.000000 0.000000 
